<svg xmlns="http://www.w3.org/2000/svg" height="48" viewBox="0 -960 960 960" width="48"><path d="M225.118-146q-51.618 0-87.868-36.167Q101-218.333 101-270H64q-15.75 0-26.375-10.625T27-307v-435q0-28.725 22.138-50.862Q71.275-815 100-815h514q30.75 0 51.875 21.125T687-742v101h78q17.118 0 32.434 7.375Q812.75-626.25 823-613l103 136q3 4.917 5 10.311 2 5.395 2 11.689v147.762q0 15.988-10.612 26.613Q911.775-270 897-270h-41q0 52-36.132 88-36.133 36-87.75 36-51.201 0-87.16-36.167Q609-218.333 609-270H349q0 52-36.132 88-36.133 36-87.75 36Zm-.136-73Q246-219 261-233.982q15-14.983 15-36Q276-291 261.018-306q-14.983-15-36-15Q204-321 189-306.018q-15 14.983-15 36Q174-249 188.982-234q14.983 15 36 15ZM100-343h24q20-25 45.071-38.5 25.072-13.5 55-13.5Q254-395 279.5-380.5 305-366 325-343h289v-399H100v399Zm631.982 124Q753-219 768-233.982q15-14.983 15-36Q783-291 768.018-306q-14.983-15-36-15Q711-321 696-306.018q-15 14.983-15 36Q681-249 695.982-234q14.983 15 36 15ZM687-430h182L765-568h-78v138ZM358-543Z"/></svg>