<svg width="25" height="25" viewBox="0 0 25 25" fill="none" xmlns="http://www.w3.org/2000/svg">
<path d="M7.29199 22.9163C6.71908 22.9163 6.22862 22.7123 5.82064 22.3044C5.41265 21.8964 5.20866 21.4059 5.20866 20.833C5.20866 20.2601 5.41265 19.7696 5.82064 19.3617C6.22862 18.9537 6.71908 18.7497 7.29199 18.7497C7.86491 18.7497 8.35536 18.9537 8.76335 19.3617C9.17133 19.7696 9.37533 20.2601 9.37533 20.833C9.37533 21.4059 9.17133 21.8964 8.76335 22.3044C8.35536 22.7123 7.86491 22.9163 7.29199 22.9163ZM17.7087 22.9163C17.1357 22.9163 16.6453 22.7123 16.2373 22.3044C15.8293 21.8964 15.6253 21.4059 15.6253 20.833C15.6253 20.2601 15.8293 19.7696 16.2373 19.3617C16.6453 18.9537 17.1357 18.7497 17.7087 18.7497C18.2816 18.7497 18.772 18.9537 19.18 19.3617C19.588 19.7696 19.792 20.2601 19.792 20.833C19.792 21.4059 19.588 21.8964 19.18 22.3044C18.772 22.7123 18.2816 22.9163 17.7087 22.9163ZM6.40658 6.24967L8.90658 11.458H16.1982L19.0628 6.24967H6.40658ZM5.41699 4.16634H20.7816C21.1809 4.16634 21.4847 4.34429 21.693 4.70019C21.9014 5.0561 21.91 5.41634 21.7191 5.78092L18.0212 12.4476C17.8302 12.7948 17.5741 13.0639 17.2529 13.2549C16.9317 13.4459 16.5802 13.5413 16.1982 13.5413H8.43783L7.29199 15.6247H19.792V17.708H7.29199C6.51074 17.708 5.92046 17.3651 5.52116 16.6794C5.12185 15.9936 5.10449 15.3122 5.46908 14.6351L6.87533 12.083L3.12533 4.16634H1.04199V2.08301H4.42741L5.41699 4.16634Z" fill="white"/>
</svg>
