<svg width="150" height="91" viewBox="0 0 150 91" fill="none" xmlns="http://www.w3.org/2000/svg">
<path fill-rule="evenodd" clip-rule="evenodd" d="M86.2195 86.2142C83.2684 89.1616 79.2681 90.8172 75.0973 90.8172C70.9264 90.8172 66.9261 89.1616 63.9751 86.2142L4.60761 26.8678C1.65642 23.9152 -0.00098344 19.9112 4.3779e-07 15.7366C0.000984315 11.562 1.66027 7.5588 4.61285 4.60761C7.56543 1.65643 11.5694 -0.00098344 15.744 4.37789e-07C19.9186 0.000984315 23.9218 1.66028 26.873 4.61286L75.0973 52.8371L123.322 4.61286C126.289 1.74444 130.264 0.156144 134.39 0.190045C138.517 0.223947 142.465 1.87733 145.385 4.79411C148.304 7.71088 149.962 11.6576 149.999 15.7844C150.037 19.9111 148.453 23.8875 145.587 26.8573L86.23 86.2248L86.2195 86.2142Z" fill="#FFD500"/>
</svg>
