<svg xmlns="http://www.w3.org/2000/svg" height="48" viewBox="0 -960 960 960" width="48"><path d="M480-147q79.917 0 136.958-56.75Q674-260.5 674-340q0-79.917-57.059-136.958Q559.882-534 479.941-534T343.5-476.941q-56.5 57.059-56.5 137T343.75-203.5Q400.5-147 480-147ZM349-572q25-15 54-23.5t61-10.5L359-814H228l121 242Zm-86 384q-23-32-36-70.5T214-340q0-43 13-81.5t36-70.5q-55 9-93 51.361-38 42.36-38 100.5Q132-282 170-239.5q38 42.5 93 51.5Zm434 0q55-9 93.5-51.361 38.5-42.36 38.5-100.5Q829-398 790.5-440.5 752-483 697-492q23 32 36.5 70.5T747-340q0 43-13.5 81.5T697-188ZM480-74q-41.611 0-78.844-11.465Q363.924-96.93 332-119q-11.667 2.667-23.833 3.833Q296-114 284-114q-94.091 0-159.546-65.408Q59-244.817 59-338.843 59-430 120-494.5 181-559 271-564L136-834q-9-18 2-35.5t31-17.5h190q21 0 38.5 11.5T425-846l55 111 56-111q9-18 26.5-29.5T601-887h190q20 0 31 17.5t2 35.5L691-566q89 6 150 70.649 61 64.65 61 155.351 0 95-66 160.5T675-114q-12 0-24-1t-23-4q-31.916 22.07-69.157 33.535Q521.601-74 480-74Zm0-266ZM349-572 228-814l121 242Zm131 287-52 40q-6 4-11 .5t-3-10.5l19-66-52-37q-5-3-3-10t8-7h64.797L472-443q1-7 8-7t9 7l20.962 68H574q6 0 8 7t-3 10l-52 37 20 66q1 7-4 10.5t-10-.5l-53-40Zm131-287 122-242H601l-80 161 28 54q16 5 32 12.062 16 7.063 30 14.938Z"/></svg>